# xmcd
#
# Track frame offsets:
#	150
#	16457
#	27124
#	35168
#	57476
#	79354
#	95924
#	152708
#	197081
#	208672
#	232560
#	256173
#
# Disc length: 3796 seconds
#
# Revision: 0
# Processed by: cddbd v1.5.2PL0 Copyright (c) Steve Scherf et al.
# Submitted via: EZCDAudioConverter 2.1.7.1
#
DISCID=9d0ed20c
DTITLE=V/A - I Am The Center 1/2
DYEAR=1900
DGENRE=
TTITLE0=Gurdjieff - De Hartmann - The Struggle Of The Magicians (Part 3)
TTITLE1=Gail Laughton - Pompeii 76 A.D.
TTITLE2=Nesta Kerin Crain - Gongs In The Rain
TTITLE3=Wilburn Burchette - Witch's Will
TTITLE4=Iasos - Formentera Sunset Clouds
TTITLE5=Steven Halpern - Seventh Chakra Keynote B (Violet)
TTITLE6=Joel Andrews - Seraphic Borealis
TTITLE7=Constance Demby - Om Mani Padme Hum
TTITLE8=Daniel Emmanuel - Arabian Fantasy
TTITLE9=Don Slepian - Awakening [Excerpt]
TTITLE10=Laraaji - Unicorns In Paradise [Excerpt]
TTITLE11=Peter Davison - Glide V
EXTD=
EXTT0=
EXTT1=
EXTT2=
EXTT3=
EXTT4=
EXTT5=
EXTT6=
EXTT7=
EXTT8=
EXTT9=
EXTT10=
EXTT11=
PLAYORDER=
